<svg width="50" height="50" viewBox="0 0 50 50" fill="none" xmlns="http://www.w3.org/2000/svg">
<path d="M48.0469 20.9375C46.1719 9.92187 36.5625 1.5625 25 1.5625C13.4375 1.5625 3.82813 9.92187 1.95312 20.9375L25 9.375L48.0469 20.9375ZM1.95312 29.0625C3.82813 40.0781 13.4375 48.4375 25 48.4375C36.5625 48.4375 46.1719 40.0781 48.0469 29.0625L25 40.625L1.95312 29.0625Z" fill="#699635"/>
<path d="M25 9.375L1.95312 20.9375C1.71875 22.2656 1.5625 23.5938 1.5625 25C1.5625 26.4062 1.71875 27.7344 1.95312 29.0625L25 40.625L48.0469 29.0625C48.2812 27.7344 48.4375 26.4062 48.4375 25C48.4375 23.5938 48.2812 22.2656 48.0469 20.9375L25 9.375Z" fill="#FFE62E"/>
<path d="M20.3125 22.1875C17.8125 22.1875 15.4688 22.7344 13.3594 23.6719C13.2813 24.1406 13.2812 24.5313 13.2812 25C13.2812 31.4844 18.5156 36.7188 25 36.7188C29.375 36.7188 33.2031 34.2969 35.2344 30.7813C32.3437 25.7031 26.7188 22.1875 20.3125 22.1875Z" fill="#428BC1"/>
<path d="M36.5625 26.875C36.6406 26.25 36.7188 25.625 36.7188 25C36.7188 18.5156 31.4844 13.2812 25 13.2812C20.3906 13.2812 16.4062 15.9375 14.4531 19.8437C16.3281 19.2969 18.2812 18.9844 20.3125 18.9844C26.9531 18.9844 32.8125 22.1094 36.5625 26.875Z" fill="#428BC1"/>
<path d="M20.3125 18.9844C18.2812 18.9844 16.3281 19.2969 14.4531 19.8438C13.9062 21.0156 13.5156 22.2656 13.3594 23.6719C15.4688 22.7344 17.8125 22.1875 20.3125 22.1875C26.7188 22.1875 32.3438 25.625 35.2344 30.7031C35.9375 29.5312 36.3281 28.2031 36.5625 26.875C32.8125 22.1094 26.9531 18.9844 20.3125 18.9844Z" fill="white"/>
<path d="M17.1875 25.7812C17.619 25.7812 17.9688 25.4315 17.9688 25C17.9688 24.5685 17.619 24.2188 17.1875 24.2188C16.756 24.2188 16.4062 24.5685 16.4062 25C16.4062 25.4315 16.756 25.7812 17.1875 25.7812Z" fill="white"/>
<path d="M20.3125 30.4688C20.744 30.4688 21.0938 30.119 21.0938 29.6875C21.0938 29.256 20.744 28.9062 20.3125 28.9062C19.881 28.9062 19.5312 29.256 19.5312 29.6875C19.5312 30.119 19.881 30.4688 20.3125 30.4688Z" fill="white"/>
<path d="M25 30.4688C25.4315 30.4688 25.7812 30.119 25.7812 29.6875C25.7812 29.256 25.4315 28.9062 25 28.9062C24.5685 28.9062 24.2188 29.256 24.2188 29.6875C24.2188 30.119 24.5685 30.4688 25 30.4688Z" fill="white"/>
<path d="M25 33.5938C25.4315 33.5938 25.7812 33.244 25.7812 32.8125C25.7812 32.381 25.4315 32.0312 25 32.0312C24.5685 32.0312 24.2188 32.381 24.2188 32.8125C24.2188 33.244 24.5685 33.5938 25 33.5938Z" fill="white"/>
<path d="M31.25 30.4688C31.6815 30.4688 32.0312 30.119 32.0312 29.6875C32.0312 29.256 31.6815 28.9062 31.25 28.9062C30.8185 28.9062 30.4688 29.256 30.4688 29.6875C30.4688 30.119 30.8185 30.4688 31.25 30.4688Z" fill="white"/>
<path d="M31.25 33.5938C31.6815 33.5938 32.0312 33.244 32.0312 32.8125C32.0312 32.381 31.6815 32.0312 31.25 32.0312C30.8185 32.0312 30.4688 32.381 30.4688 32.8125C30.4688 33.244 30.8185 33.5938 31.25 33.5938Z" fill="white"/>
<path d="M28.125 32.0312C28.5565 32.0312 28.9062 31.6815 28.9062 31.25C28.9062 30.8185 28.5565 30.4688 28.125 30.4688C27.6935 30.4688 27.3438 30.8185 27.3438 31.25C27.3438 31.6815 27.6935 32.0312 28.125 32.0312Z" fill="white"/>
<path d="M17.1875 28.9062C17.619 28.9062 17.9688 28.5565 17.9688 28.125C17.9688 27.6935 17.619 27.3438 17.1875 27.3438C16.756 27.3438 16.4062 27.6935 16.4062 28.125C16.4062 28.5565 16.756 28.9062 17.1875 28.9062Z" fill="white"/>
</svg>
