<svg width="48" height="65" viewBox="0 0 48 65" fill="none" xmlns="http://www.w3.org/2000/svg">
<path d="M12.0053 0H18.88V2.87467H14.88V5.74933H18.88V8.624H12.0053V0ZM20.2533 0H27.1307V2.50133H23.1307V3H27.1307V8.74933H20.2533V6.12533H24.2533V5.624H20.2533V0ZM28.5067 0H35.3787V2.50133H31.3787V3H35.3787V8.74933H28.5067V6.12533H32.5067V5.624H28.5067V0Z" fill="#7B337E"/>
<path fill-rule="evenodd" clip-rule="evenodd" d="M23.976 64.4213L5.45867 59.28L0 13H48L42.544 59.2747L23.976 64.4213ZM10.792 33.9493L11.3013 39.624H30.9733L30.3147 46.984L23.984 48.696H23.9787L17.6587 46.9893L17.2533 42.464H11.5547L12.3493 51.376L23.976 54.6027L35.6213 51.376L37.04 35.472L37.1787 33.9493L38.2027 22.4587H9.77067L10.288 28.136H31.984L31.4667 33.9493H10.792Z" fill="#7B337E"/>
</svg>
