<svg width="57" height="58" viewBox="0 0 57 58" fill="none" xmlns="http://www.w3.org/2000/svg">
<path fill-rule="evenodd" clip-rule="evenodd" d="M27.5144 27.0216C26.7088 27.0216 25.911 27.1803 25.1668 27.4886C24.4225 27.7969 23.7462 28.2488 23.1765 28.8184C22.6069 29.3881 22.155 30.0643 21.8467 30.8086C21.5384 31.5529 21.3798 32.3506 21.3798 33.1562C21.3798 33.9619 21.5384 34.7596 21.8467 35.5039C22.155 36.2482 22.6069 36.9244 23.1765 37.4941C23.7462 38.0637 24.4225 38.5156 25.1668 38.8239C25.911 39.1322 26.7088 39.2909 27.5144 39.2909H33.649V27.0216H27.5144ZM33.649 23.4591H27.5144C25.8871 23.4591 24.3264 22.8127 23.1757 21.662C22.025 20.5113 21.3786 18.9506 21.3786 17.3233C21.3786 15.696 22.025 14.1353 23.1757 12.9846C24.3264 11.8339 25.8871 11.1875 27.5144 11.1875H33.649V23.4591ZM37.2115 11.1875V23.4591H43.3461C44.9525 23.4275 46.4825 22.7672 47.6074 21.6199C48.7323 20.4727 49.3624 18.93 49.3624 17.3233C49.3624 15.7166 48.7323 14.1739 47.6074 13.0267C46.4825 11.8794 44.9525 11.2191 43.3461 11.1875H37.2115ZM43.3461 27.0192C41.7359 27.019 40.1901 27.652 39.0424 28.7815C37.8947 29.911 37.2371 31.4464 37.2115 33.0565V33.2536C37.2312 34.4625 37.6076 35.6386 38.2935 36.6342C38.9794 37.6299 39.9443 38.4006 41.0668 38.8497C42.1893 39.2987 43.4196 39.4061 44.6029 39.1582C45.7863 38.9104 46.87 38.3184 47.718 37.4566C48.566 36.5948 49.1404 35.5017 49.3692 34.3145C49.5979 33.1273 49.4707 31.899 49.0036 30.7838C48.5365 29.6686 47.7503 28.7164 46.7437 28.0466C45.7372 27.3768 44.5552 27.0194 43.3461 27.0192ZM27.5144 42.8534C26.3005 42.8529 25.1137 43.2124 24.1042 43.8865C23.0947 44.5605 22.3077 45.5188 21.8428 46.6402C21.378 47.7615 21.2561 48.9956 21.4926 50.1862C21.7292 51.3768 22.3135 52.4705 23.1716 53.329C24.0298 54.1876 25.1233 54.7723 26.3139 55.0093C27.5044 55.2463 28.7385 55.1249 29.86 54.6604C30.9815 54.196 31.9401 53.4094 32.6146 52.4002C33.289 51.3909 33.649 50.2043 33.649 48.9904V42.8534H27.5144Z" fill="#7B337E"/>
</svg>
