<svg width="54" height="55" viewBox="0 0 54 55" fill="none" xmlns="http://www.w3.org/2000/svg">
<path d="M27 0.210693C23.4543 0.210693 19.9433 0.926408 16.6675 2.31697C13.3918 3.70754 10.4153 5.74572 7.90812 8.31514C2.84463 13.5043 0 20.5424 0 27.881C0 40.1113 7.749 50.4877 18.468 54.1678C19.818 54.3892 20.25 53.5314 20.25 52.7843V48.108C12.771 49.7682 11.178 44.4002 11.178 44.4002C9.936 41.1904 8.181 40.3327 8.181 40.3327C5.724 38.6171 8.37 38.6724 8.37 38.6724C11.07 38.8661 12.501 41.5225 12.501 41.5225C14.85 45.7284 18.819 44.4832 20.358 43.8191C20.601 42.0206 21.303 40.8031 22.059 40.1113C16.065 39.4195 9.774 37.0399 9.774 26.4975C9.774 23.4261 10.8 20.9634 12.555 18.9988C12.285 18.3071 11.34 15.4294 12.825 11.6939C12.825 11.6939 15.093 10.9468 20.25 14.5163C22.383 13.9075 24.705 13.6031 27 13.6031C29.295 13.6031 31.617 13.9075 33.75 14.5163C38.907 10.9468 41.175 11.6939 41.175 11.6939C42.66 15.4294 41.715 18.3071 41.445 18.9988C43.2 20.9634 44.226 23.4261 44.226 26.4975C44.226 37.0676 37.908 39.3919 31.887 40.0836C32.859 40.9414 33.75 42.6293 33.75 45.2026V52.7843C33.75 53.5314 34.182 54.4169 35.559 54.1678C46.278 50.46 54 40.1113 54 27.881C54 24.2473 53.3016 20.6492 51.9448 17.292C50.5879 13.9349 48.5991 10.8846 46.0919 8.31514C43.5847 5.74572 40.6082 3.70754 37.3325 2.31697C34.0567 0.926408 30.5457 0.210693 27 0.210693Z" fill="#7B337E"/>
</svg>
