<svg width="74" height="72" viewBox="0 0 74 72" fill="none" xmlns="http://www.w3.org/2000/svg">
<path d="M37 0C32.1411 0 27.3298 0.954286 22.8407 2.80837C18.3517 4.66246 14.2728 7.38003 10.837 10.8059C3.8982 17.7249 0 27.1089 0 36.8938C0 53.2008 10.619 67.036 25.308 71.9429C27.158 72.238 27.75 71.0943 27.75 70.0982V63.8631C17.501 66.0767 15.318 58.9193 15.318 58.9193C13.616 54.6397 11.211 53.496 11.211 53.496C7.844 51.2086 11.47 51.2823 11.47 51.2823C15.17 51.5406 17.131 55.0824 17.131 55.0824C20.35 60.6903 25.789 59.03 27.898 58.1446C28.231 55.7465 29.193 54.1232 30.229 53.2008C22.015 52.2785 13.394 49.1056 13.394 35.0491C13.394 30.9539 14.8 27.6703 17.205 25.0509C16.835 24.1285 15.54 20.2916 17.575 15.3109C17.575 15.3109 20.683 14.3148 27.75 19.0741C30.673 18.2624 33.855 17.8566 37 17.8566C40.145 17.8566 43.327 18.2624 46.25 19.0741C53.317 14.3148 56.425 15.3109 56.425 15.3109C58.46 20.2916 57.165 24.1285 56.795 25.0509C59.2 27.6703 60.606 30.9539 60.606 35.0491C60.606 49.1425 51.948 52.2416 43.697 53.1639C45.029 54.3076 46.25 56.5582 46.25 59.9893V70.0982C46.25 71.0943 46.842 72.2749 48.729 71.9429C63.418 66.9991 74 53.2008 74 36.8938C74 32.0488 73.043 27.2513 71.1835 22.7751C69.3241 18.299 66.5987 14.2318 63.163 10.8059C59.7272 7.38003 55.6483 4.66246 51.1593 2.80837C46.6702 0.954286 41.8589 0 37 0Z" fill="#6667AB"/>
</svg>
