<svg width="67" height="67" viewBox="0 0 67 67" fill="none" xmlns="http://www.w3.org/2000/svg">
<path d="M59.5556 0C61.5299 0 63.4235 0.784323 64.8196 2.18043C66.2157 3.57653 67 5.47006 67 7.44444V59.5556C67 61.5299 66.2157 63.4235 64.8196 64.8196C63.4235 66.2157 61.5299 67 59.5556 67H7.44444C5.47006 67 3.57653 66.2157 2.18043 64.8196C0.784323 63.4235 0 61.5299 0 59.5556V7.44444C0 5.47006 0.784323 3.57653 2.18043 2.18043C3.57653 0.784323 5.47006 0 7.44444 0H59.5556ZM57.6944 57.6944V37.9667C57.6944 34.7484 56.416 31.662 54.1404 29.3863C51.8647 27.1107 48.7783 25.8322 45.56 25.8322C42.3961 25.8322 38.7111 27.7678 36.9244 30.6711V26.5394H26.5394V57.6944H36.9244V39.3439C36.9244 36.4778 39.2322 34.1328 42.0983 34.1328C43.4804 34.1328 44.8059 34.6818 45.7831 35.6591C46.7604 36.6364 47.3094 37.9618 47.3094 39.3439V57.6944H57.6944ZM14.4422 20.6956C16.1007 20.6956 17.6913 20.0367 18.864 18.864C20.0367 17.6913 20.6956 16.1007 20.6956 14.4422C20.6956 10.9806 17.9039 8.15167 14.4422 8.15167C12.7739 8.15167 11.1738 8.81442 9.99413 9.99413C8.81442 11.1738 8.15167 12.7739 8.15167 14.4422C8.15167 17.9039 10.9806 20.6956 14.4422 20.6956ZM19.6161 57.6944V26.5394H9.30556V57.6944H19.6161Z" fill="#6667AB"/>
</svg>
