<svg width="24" height="23" viewBox="0 0 24 23" fill="none" xmlns="http://www.w3.org/2000/svg">
<path d="M21.3333 0C22.0406 0 22.7189 0.269245 23.219 0.748505C23.719 1.22776 24 1.87778 24 2.55556V20.4444C24 21.1222 23.719 21.7722 23.219 22.2515C22.7189 22.7308 22.0406 23 21.3333 23H2.66667C1.95942 23 1.28115 22.7308 0.781048 22.2515C0.280951 21.7722 0 21.1222 0 20.4444V2.55556C0 1.87778 0.280951 1.22776 0.781048 0.748505C1.28115 0.269245 1.95942 0 2.66667 0H21.3333ZM20.6667 19.8056V13.0333C20.6667 11.9286 20.2087 10.869 19.3936 10.0878C18.5784 9.30665 17.4728 8.86778 16.32 8.86778C15.1867 8.86778 13.8667 9.53222 13.2267 10.5289V9.11056H9.50667V19.8056H13.2267V13.5061C13.2267 12.5222 14.0533 11.7172 15.08 11.7172C15.5751 11.7172 16.0499 11.9057 16.3999 12.2412C16.75 12.5767 16.9467 13.0317 16.9467 13.5061V19.8056H20.6667ZM5.17333 7.10444C5.76742 7.10444 6.33717 6.87828 6.75725 6.4757C7.17733 6.07312 7.41333 5.52711 7.41333 4.95778C7.41333 3.76944 6.41333 2.79833 5.17333 2.79833C4.57571 2.79833 4.00257 3.02585 3.57999 3.43082C3.1574 3.83579 2.92 4.38506 2.92 4.95778C2.92 6.14611 3.93333 7.10444 5.17333 7.10444ZM7.02667 19.8056V9.11056H3.33333V19.8056H7.02667Z" fill="#7B337E"/>
</svg>
