<svg width="74" height="74" viewBox="0 0 74 74" fill="none" xmlns="http://www.w3.org/2000/svg">
<path d="M37 0C57.4351 0 74 16.5649 74 37C74 57.4351 57.4351 73.9999 37 73.9999C30.4612 74.0112 24.0374 72.2807 18.389 68.9865L0.0148572 73.9999L5.01725 55.6184C1.7204 49.9682 -0.011402 43.5416 5.64941e-05 37C5.64941e-05 16.5649 16.5649 0 37 0ZM24.3904 19.61L23.6504 19.6396C23.172 19.6726 22.7045 19.7982 22.274 20.0096C21.8729 20.2372 21.5065 20.5213 21.1862 20.8532C20.7422 21.2713 20.4906 21.6339 20.2205 21.9854C18.852 23.7647 18.1151 25.9492 18.1263 28.194C18.1337 30.007 18.6073 31.7719 19.3473 33.4221C20.8606 36.7595 23.3507 40.293 26.6363 43.5675C27.4281 44.3556 28.2051 45.1474 29.0413 45.8837C33.124 49.4779 37.989 52.07 43.2493 53.4539L45.3509 53.7758C46.0354 53.8128 46.7199 53.761 47.4081 53.7277C48.4855 53.6708 49.5374 53.3791 50.4902 52.873C50.9743 52.6226 51.4472 52.351 51.9073 52.059C51.9073 52.059 52.064 51.9529 52.3698 51.726C52.8693 51.356 53.1764 51.0933 53.5908 50.6604C53.9016 50.3397 54.1606 49.9672 54.3678 49.543C54.6564 48.9399 54.945 47.7892 55.0634 46.8309C55.1522 46.0983 55.1263 45.6987 55.1152 45.4508C55.1004 45.0549 54.7711 44.6442 54.4122 44.4703L52.2588 43.5046C52.2588 43.5046 49.0398 42.1023 47.0714 41.2069C46.8654 41.1172 46.6447 41.0658 46.4202 41.0552C46.167 41.0287 45.9111 41.0569 45.6698 41.138C45.4285 41.2191 45.2075 41.3511 45.0216 41.5251C45.0031 41.5177 44.7552 41.7286 42.0801 44.9698C41.9266 45.1761 41.7151 45.332 41.4726 45.4177C41.2301 45.5033 40.9676 45.5149 40.7185 45.4508C40.4774 45.3865 40.2412 45.3049 40.0118 45.2066C39.553 45.0142 39.3939 44.9402 39.0794 44.807C36.9552 43.8816 34.9889 42.6294 33.2519 41.0959C32.7857 40.6889 32.3528 40.2449 31.9088 39.8157C30.4533 38.4215 29.1847 36.8445 28.1348 35.1241L27.9165 34.7726C27.7621 34.535 27.6355 34.2805 27.5391 34.0141C27.3985 33.4702 27.7648 33.0336 27.7648 33.0336C27.7648 33.0336 28.6639 32.0494 29.082 31.5166C29.489 30.9986 29.8331 30.4954 30.0551 30.1365C30.4917 29.4335 30.6286 28.712 30.3992 28.1533C29.3632 25.6225 28.2927 23.1052 27.1876 20.6016C26.9693 20.1058 26.3218 19.7506 25.7335 19.6803C25.5337 19.6556 25.3339 19.6359 25.1341 19.6211C24.6373 19.5926 24.1392 19.5975 23.643 19.6359L24.3904 19.61Z" fill="#6667AB"/>
</svg>
